HIERARCHY
ROOT Hips
{
	OFFSET 0.00000 0.00000 0.00000
	CHANNELS 6 Xposition Yposition Zposition Zrotation Yrotation Xrotation 
	JOINT LHipJoint
	{
		OFFSET 0 0 0
		CHANNELS 3 Zrotation Yrotation Xrotation
		JOINT LeftHip
		{
			OFFSET 1.30186 -1.90722 0.65024
			CHANNELS 3 Zrotation Yrotation Xrotation
			JOINT LeftKnee
			{
				OFFSET 2.56413 -7.04489 0.00000
				CHANNELS 3 Zrotation Yrotation Xrotation
				JOINT LeftAnkle
				{
					OFFSET 2.79321 -7.67428 0.00000
					CHANNELS 3 Zrotation Yrotation Xrotation
					JOINT LeftToe
					{
						OFFSET 0.15723 -0.43198 2.08537
						CHANNELS 3 Zrotation Yrotation Xrotation
						End Site
						{
							OFFSET 0.00000 -0.00000 1.07411
						}
					}
				}
			}
		}
	}
	JOINT RHipJoint
	{
		OFFSET 0 0 0
		CHANNELS 3 Zrotation Yrotation Xrotation
		JOINT RightHip
		{
			OFFSET -1.28627 -1.90723 0.65024
			CHANNELS 3 Zrotation Yrotation Xrotation
			JOINT RightKnee
			{
				OFFSET -2.56567 -7.04913 0.00000
				CHANNELS 3 Zrotation Yrotation Xrotation
				JOINT RightAnkle
				{
					OFFSET -2.75597 -7.57198 0.00000
					CHANNELS 3 Zrotation Yrotation Xrotation
					JOINT RightToe
					{
						OFFSET -0.17500 -0.48081 2.22901
						CHANNELS 3 Zrotation Yrotation Xrotation
						End Site
						{
							OFFSET -0.00000 -0.00000 1.14762
						}
					}
				}
			}
		}
	}
	JOINT lowerback
	{
		OFFSET 0 0 0
		CHANNELS 3 Zrotation Yrotation Xrotation
		JOINT Chest
		{
			OFFSET -0.04522 2.07467 -0.16566
			CHANNELS 3 Zrotation Yrotation Xrotation
			JOINT Chest2
			{
				OFFSET -0.01178 2.08825 -0.05393
				CHANNELS 3 Zrotation Yrotation Xrotation
				JOINT lowerneck
				{
					OFFSET 0 0 0
					CHANNELS 3 Zrotation Yrotation Xrotation
					JOINT Neck
					{
						OFFSET -0.05182 1.80489 0.16014
						CHANNELS 3 Zrotation Yrotation Xrotation
						JOINT Head
						{
							OFFSET 0.14739 1.78840 -0.33342
							CHANNELS 3 Zrotation Yrotation Xrotation
							End Site
							{
								OFFSET 0.04364 1.83899 -0.13460
							}
						}
					}
				}
				JOINT LeftCollar
				{
					OFFSET 0 0 0
					CHANNELS 3 Zrotation Yrotation Xrotation
					JOINT LeftShoulder
					{
						OFFSET 3.01264 1.29090 -0.06579
CHANNELS 3 Zrotation Xrotation Yrotation
						JOINT LeftElbow
						{
OFFSET 0 -5.556800 0.000000
CHANNELS 3 Zrotation Xrotation Yrotation
							JOINT LeftWrist
							{
OFFSET 0 -3.639790 -0.000000
CHANNELS 3 Zrotation Xrotation Yrotation
								JOINT lhand
								{
									OFFSET 0 0 0
CHANNELS 3 Zrotation Xrotation Yrotation
									JOINT LFingers
									{
OFFSET 0 -0.569420 -0.000000
CHANNELS 3 Zrotation Xrotation Yrotation
										End Site
										{
OFFSET 0 -0.459080 -0.000000
										}
									}
								}
								JOINT LThumb
								{
OFFSET 0 0.000000 0.000000
CHANNELS 3 Zrotation Xrotation Yrotation
									End Site
									{
OFFSET 0 -0.466090 0.466090
									}
								}
							}
						}
					}
				}
				JOINT RightCollar
				{
					OFFSET 0 0 0
					CHANNELS 3 Zrotation Yrotation Xrotation
					JOINT RightShoulder
					{
						OFFSET -3.15796 1.37283 -0.36748
CHANNELS 3 Zrotation Xrotation Yrotation
						JOINT RightElbow
						{
OFFSET 0 -5.343390 0.000000
CHANNELS 3 Zrotation Xrotation Yrotation
							JOINT RightWrist
							{
OFFSET 0 -3.651010 -0.000000
CHANNELS 3 Zrotation Xrotation Yrotation
								JOINT rhand
								{
									OFFSET 0 0 0
CHANNELS 3 Zrotation Xrotation Yrotation
									JOINT RFingers
									{
OFFSET 0 -0.694250 -0.000000
CHANNELS 3 Zrotation Xrotation Yrotation
										End Site
										{
OFFSET 0 -0.559720 -0.000000
										}
									}
								}
								JOINT RThumb
								{
OFFSET 0 0.000000 0.000000
CHANNELS 3 Zrotation Xrotation Yrotation
									End Site
									{
OFFSET 0 -0.568270 0.568270
									}
								}
							}
						}
					}
				}
			}
		}
	}
}
MOTION
Frames: 4
Frame Time: 0.008333333333333333
9.918629 17.535965 -14.130868 33.366573 78.926842 38.873285 0.000000 0.000000 0.000000 -12.782063 -1.761656 -23.074634 3.388928 11.299394 33.296464 0.386672 -4.560494 -11.094766 0.076468 -1.778985 -4.895370 0.000000 0.000000 0.000000 -6.280408 3.359298 -12.444904 -1.512100 -7.764802 22.002535 1.063563 -22.983878 -24.036770 -1.316527 -7.193741 20.321955 12.425122 0.232491 9.819996 4.260462 1.635975 6.306371 -2.602534 1.251085 1.379302 -14.224198 -8.987993 -1.561905 -9.700526 -6.003813 32.818906 -1.678289 -4.680252 11.429346 0.000000 0.000000 0.000000 40.378533 18.285520 14.810313 25.266657 -36.473723 8.448572 31.992564 -12.098333 -15.038575 0.000000 0.000000 0.000000 -7.125000 0.000000 0.000000 4.253347 47.510120 -0.259299 0.000000 0.000000 0.000000 -60.431921 4.140811 36.163964 -30.839959 -41.602555 -11.963450 7.970020 -26.524000 -21.816540 0.000000 0.000000 0.000000 7.125000 0.000000 0.000000 22.735947 9.204641 20.542100
9.918200 17.555957 -14.073854 32.308243 78.448682 38.114359 0.000000 0.000000 0.000000 -12.676710 -2.022453 -23.100004 3.338989 11.224637 33.041224 0.407360 -3.490695 -11.365638 0.060129 -1.580003 -4.346439 0.000000 0.000000 0.000000 -6.248885 2.526858 -13.615109 -1.577941 -7.925196 22.487339 1.246415 -22.832268 -21.788071 -0.830698 -5.804006 16.219396 12.243983 0.343125 9.822517 4.545406 1.765665 6.474242 -2.209609 1.324727 1.556212 -14.297137 -9.013311 -1.556648 -10.195007 -5.897772 32.599297 -1.827078 -4.671797 11.335080 0.000000 0.000000 0.000000 38.892342 18.345355 16.131501 25.705424 -36.916147 8.710102 32.796942 -12.473404 -14.566258 0.000000 0.000000 0.000000 -7.125000 0.000000 0.000000 5.069995 47.094527 -0.264975 0.000000 0.000000 0.000000 -60.945186 3.961269 36.488952 -30.865381 -41.623718 -11.980357 9.104164 -26.595105 -21.549235 0.000000 0.000000 0.000000 7.125000 0.000000 0.000000 23.415623 9.457355 21.149988
9.922267 17.570462 -14.002956 34.486138 77.160937 40.654265 0.000000 0.000000 0.000000 -13.724583 -2.048955 -23.161074 3.265448 11.112462 32.660574 0.417934 -2.690692 -11.594530 0.032881 -1.129472 -3.105665 0.000000 0.000000 0.000000 -7.344475 1.376163 -15.284114 -1.677035 -8.156460 23.191298 1.291692 -22.087980 -19.220985 -0.428697 -4.009744 11.132060 10.732972 0.534941 9.624261 4.561876 1.845442 6.678936 -1.365481 1.329878 1.816554 -14.050961 -8.948784 -1.802214 -11.015412 -5.551554 32.497696 -2.134729 -4.562062 11.305867 0.000000 0.000000 0.000000 37.237570 18.587125 17.617502 26.201706 -37.405245 9.010637 34.276504 -11.462606 -15.928696 0.000000 0.000000 0.000000 -7.125000 0.000000 0.000000 6.486725 48.934812 -0.661824 0.000000 0.000000 0.000000 -61.586111 3.371315 37.156921 -30.807768 -41.575730 -11.942061 9.395006 -27.232708 -21.274592 0.000000 0.000000 0.000000 7.125000 0.000000 0.000000 23.611438 9.711326 21.230714
9.926520 17.581281 -13.928075 36.668761 75.699222 43.216099 0.000000 0.000000 0.000000 -14.954839 -2.023038 -23.211682 3.182227 10.983682 32.225644 0.432305 -2.057697 -11.883583 0.037725 -1.201334 -3.303632 0.000000 0.000000 0.000000 -8.608004 0.347541 -17.056169 -1.801518 -8.436047 24.048789 1.210652 -20.944004 -17.443335 -0.208224 -2.913557 8.039923 9.097467 0.794514 9.438813 4.418449 2.012557 6.844764 -0.623360 1.367567 2.032221 -13.493293 -8.907117 -1.958617 -11.850894 -5.312703 32.351010 -2.497703 -4.465320 11.216716 0.000000 0.000000 0.000000 35.789269 18.865007 18.840221 26.782386 -37.967273 9.366308 35.645943 -11.018131 -16.548496 0.000000 0.000000 0.000000 -7.125000 0.000000 0.000000 7.848617 49.903908 -0.958492 0.000000 0.000000 0.000000 -62.131282 2.918140 37.962449 -30.794011 -41.564263 -11.932916 9.097002 -28.327219 -20.995556 0.000000 0.000000 0.000000 7.125000 0.000000 0.000000 23.468324 9.971104 20.942577
